<?xml version="1.0" standalone="no"?><svg xmlns="http://www.w3.org/2000/svg" viewBox="0 0 1440 320"><path fill="#8e46ce" fill-opacity="1" d="M0,192L40,192C80,192,160,192,240,165.3C320,139,400,85,480,101.3C560,117,640,203,720,224C800,245,880,203,960,197.3C1040,192,1120,224,1200,229.3C1280,235,1360,213,1400,202.7L1440,192L1440,320L1400,320C1360,320,1280,320,1200,320C1120,320,1040,320,960,320C880,320,800,320,720,320C640,320,560,320,480,320C400,320,320,320,240,320C160,320,80,320,40,320L0,320Z"></path></svg>